<svg width="100" height="100" viewBox="0 0 100 100" fill="none" xmlns="http://www.w3.org/2000/svg">
<ellipse cx="50" cy="49.7863" rx="50" ry="49.7863" fill="#003153"/>
<path d="M32.4805 35.3364C31.0451 36.2926 29.3687 36.7984 27.6311 36.7984H25.8897C25.3988 36.7984 25 37.1954 25 37.6842C25 38.173 25.3988 38.57 25.8897 38.57H27.6304C29.7214 38.57 31.7404 37.9612 33.461 36.8141C33.7266 36.6413 34.0093 36.5056 34.2976 36.3881C33.4723 38.3124 33.0048 40.4189 32.9385 42.6247C32.7808 42.68 32.6269 42.7566 32.4887 42.871L28.8986 45.9708C28.5068 46.3201 28.2576 46.7969 28.1939 47.3259L27.4001 54.8278L25.0473 61.7404C24.8896 62.2034 25.1388 62.7066 25.6045 62.8637C26.0701 63.0207 26.5742 62.7726 26.732 62.3089L29.1176 55.3027L29.9618 47.5238C29.9731 47.4333 30.016 47.3523 30.0753 47.2989L33.3543 44.468L35.0629 46.4313C35.4945 46.9326 36.2245 47.0513 36.7892 46.7196L40.3546 44.6816L40.7357 44.9492L33.5525 52.9751L31.7606 72.7579C31.7164 73.2454 32.0773 73.6758 32.5669 73.7198C32.5941 73.7223 32.6212 73.7235 32.6483 73.7235C33.1039 73.7235 33.4919 73.3774 33.5335 72.9175L35.2724 53.717L35.9791 52.9273C39.1931 57.5575 44.551 60.3896 50.2384 60.3896C56.0292 60.3896 61.4363 57.4853 64.6314 52.7363L65.5091 53.717L67.248 72.9175C67.2896 73.378 67.6776 73.7235 68.1332 73.7235C68.1597 73.7235 68.1868 73.7223 68.2146 73.7198C68.7042 73.6758 69.0651 73.2454 69.0209 72.7579L67.229 52.9751L60.0432 44.9492L60.423 44.6828L63.9803 46.7146C64.5538 47.0507 65.2838 46.932 65.7135 46.435L67.4246 44.4686L70.6929 47.2907C70.7629 47.3535 70.8065 47.4346 70.8166 47.5118L71.6191 55.1117L73.7435 61.4137C73.9012 61.8761 74.4066 62.1255 74.8716 61.9678C75.3373 61.8101 75.5865 61.3075 75.4281 60.8439L73.3782 54.8284L72.5838 47.3133C72.5214 46.7969 72.2709 46.3201 71.869 45.962L68.2732 42.8572C68.053 42.6769 67.795 42.5983 67.5331 42.5694C67.4562 40.2374 66.9167 38.0241 65.9962 36.013H72.775C73.2665 36.013 73.6646 35.616 73.6646 35.1272C73.6646 34.6384 73.2665 34.2414 72.775 34.2414H65.051C62.013 29.2456 56.5188 25.8889 50.2371 25.8889C43.9296 25.8889 38.4158 29.2732 35.3853 34.3036C34.3657 34.416 33.3701 34.7578 32.4805 35.3364ZM42.1314 43.7612L41.2026 43.1097C40.7913 42.8031 40.2203 42.7554 39.7023 43.0142L39.5647 43.0934C39.5767 40.3454 40.648 37.8488 42.3831 35.9659L46.3038 39.8692C45.5561 40.7594 45.0874 41.8903 45.0874 43.1399C45.0874 45.6648 46.9329 47.7562 49.3481 48.179V53.7045C45.5807 53.3922 42.2771 51.1406 40.6304 47.7311L42.3692 45.7898C42.6241 45.5046 42.7478 45.1232 42.7074 44.7438C42.6664 44.3568 42.462 44.0025 42.1314 43.7612ZM50.2371 46.4966C48.3783 46.4966 46.866 44.9907 46.866 43.1399C46.866 41.2891 48.3783 39.7832 50.2371 39.7832C52.0965 39.7832 53.6082 41.2891 53.6082 43.1399C53.6082 44.9907 52.0965 46.4966 50.2371 46.4966ZM53.5224 39.2221C52.6284 38.477 51.492 38.0102 50.2371 38.0102C49.297 38.0102 48.4263 38.281 47.6666 38.7208L43.6898 34.761C45.5006 33.3549 47.7689 32.5087 50.2371 32.5087C53.0151 32.5087 55.5414 33.5798 57.4425 35.3176L53.5224 39.2221ZM50.2371 58.6186C44.9877 58.6186 40.0562 55.9259 37.2037 51.5577L39.3496 49.161C41.5326 53.0737 45.6659 55.5415 50.2371 55.5415C54.9237 55.5415 59.0981 52.9895 61.2338 48.943L63.3986 51.3611C60.5701 55.8499 55.5888 58.6186 50.2371 58.6186ZM59.5978 43.0946L58.6343 43.7719C58.3188 44.0031 58.1138 44.3574 58.0728 44.7425C58.033 45.122 58.1561 45.5033 58.4122 45.7898L59.9416 47.4986C58.3447 51.0451 55.0007 53.3866 51.1267 53.7032V48.1784C53.5426 47.7562 55.3875 45.6642 55.3875 43.1392C55.3875 42.2032 55.1156 41.3362 54.6739 40.5804L58.6514 36.6206C60.0249 38.3753 60.8597 40.5641 60.9032 42.9464C60.459 42.7774 59.9555 42.827 59.5978 43.0946ZM50.2371 27.6605C58.8091 27.6605 65.7823 34.6039 65.7823 43.1392C65.7823 43.3082 65.7779 43.4816 65.7715 43.6619L64.5892 45.0202L62.6477 43.912C62.6648 43.6531 62.6919 43.3987 62.6919 43.1392C62.6919 39.905 61.4319 36.9648 59.387 34.7547C59.3687 34.7321 59.3082 34.6655 59.2943 34.6529C57.0216 32.2492 53.807 30.7377 50.2371 30.7377C46.989 30.7377 44.0368 31.9923 41.8178 34.0278C41.7938 34.0466 41.7257 34.1082 41.7137 34.122C39.3003 36.3856 37.7829 39.5859 37.7829 43.1392C37.7829 43.4584 37.8025 43.7757 37.8296 44.0835L36.1898 45.0202L34.6964 43.3038C34.6957 43.2486 34.6926 43.1933 34.6926 43.1392C34.6926 34.6039 41.6664 27.6605 50.2371 27.6605Z" fill="white"/>
<path d="M64.5664 31.2039H72.7743C73.2658 31.2039 73.6639 30.8069 73.6639 30.3181C73.6639 29.8293 73.2658 29.4323 72.7743 29.4323H64.5664C64.0749 29.4323 63.6768 29.8293 63.6768 30.3181C63.6768 30.8069 64.0749 31.2039 64.5664 31.2039Z" fill="white"/>
<path d="M25.8896 31.9898C25.3988 31.9898 25 32.3868 25 32.8756C25 33.3644 25.3988 33.7614 25.8896 33.7614H27.6304C29.7201 33.7614 31.7391 33.1527 33.4609 32.0055C34.2099 31.5186 35.0629 31.2453 35.9279 31.2151C36.4188 31.1982 36.8024 30.7879 36.786 30.2985C36.7683 29.8098 36.357 29.4146 35.8655 29.4441C34.6768 29.485 33.5095 29.8575 32.4805 30.5266C31.0438 31.4834 29.3668 31.9891 27.6304 31.9891H25.8896V31.9898Z" fill="white"/>
</svg>
