<svg width="100" height="100" viewBox="0 0 100 100" fill="none" xmlns="http://www.w3.org/2000/svg">
<circle cx="50" cy="50" r="50" fill="#003153"/>
<path d="M40.3226 33.0645H43.5484C43.9943 33.0645 44.3548 32.7041 44.3548 32.2581V29.0323C44.3548 28.5863 43.9943 28.2258 43.5484 28.2258H40.3226C39.8766 28.2258 39.5161 28.5863 39.5161 29.0323V32.2581C39.5161 32.7041 39.8766 33.0645 40.3226 33.0645ZM41.129 29.8387H42.7419V31.4516H41.129V29.8387Z" fill="white"/>
<path d="M43.5484 39.5161C43.9943 39.5161 44.3548 39.1557 44.3548 38.7097V35.4839C44.3548 35.0379 43.9943 34.6774 43.5484 34.6774H40.3226C39.8766 34.6774 39.5161 35.0379 39.5161 35.4839V38.7097C39.5161 39.1557 39.8766 39.5161 40.3226 39.5161H43.5484ZM41.129 36.2903H42.7419V37.9032H41.129V36.2903Z" fill="white"/>
<path d="M45.9678 28.2258H60.4839V29.8387H45.9678V28.2258Z" fill="white"/>
<path d="M45.9678 31.4516H60.4839V33.0645H45.9678V31.4516Z" fill="white"/>
<path d="M45.9678 34.6774H60.4839V36.2903H45.9678V34.6774Z" fill="white"/>
<path d="M45.9678 37.9033H60.4839V39.5162H45.9678V37.9033Z" fill="white"/>
<path d="M68.8677 59.5524C71.0806 58.3081 72.5806 55.9403 72.5806 53.2258C72.5806 49.2234 69.325 45.9677 65.3226 45.9677C64.7677 45.9677 64.229 46.0363 63.7097 46.1548V25.8065C63.7097 25.3605 63.3492 25 62.9032 25H37.0968C36.6508 25 36.2903 25.3605 36.2903 25.8065V46.1548C35.771 46.0363 35.2323 45.9677 34.6774 45.9677C30.675 45.9677 27.4194 49.2234 27.4194 53.2258C27.4194 55.9403 28.9194 58.3081 31.1323 59.5524C27.546 60.971 25 64.4645 25 68.5484V74.1936C25 74.6395 25.3605 75 25.8065 75H43.5484C43.9944 75 44.3548 74.6395 44.3548 74.1936V70.1613H55.6452V74.1936C55.6452 74.6395 56.0056 75 56.4516 75H74.1936C74.6395 75 75 74.6395 75 74.1936V68.5484C75 64.4645 72.454 60.971 68.8677 59.5524ZM65.3226 58.871C62.4839 58.871 60.1339 56.7613 59.7411 54.029C61.9363 54.0129 64.0823 53.1371 65.6581 51.6097C66.2806 53.0347 67.7032 54.0323 69.3548 54.0323H70.9032C70.5097 56.7629 68.1605 58.871 65.3226 58.871ZM70.9032 52.4194H69.3548C68.021 52.4194 66.9355 51.3339 66.9355 50C66.9355 49.6742 66.7395 49.379 66.4379 49.2548C66.1363 49.129 65.7895 49.1992 65.5589 49.4298L64.6113 50.3774C63.3282 51.6605 61.5556 52.4 59.7419 52.4161C60.1371 49.6871 62.4855 47.5806 65.3226 47.5806C68.1605 47.5806 70.5097 49.6887 70.9032 52.4194ZM37.9032 26.6129H62.0968V46.7339C59.7113 47.9242 58.0645 50.3839 58.0645 53.2258C58.0645 55.9427 59.5677 58.3129 61.7839 59.5564C60.8855 59.9105 60.0444 60.3968 59.2855 61.0024C58.4452 58.1266 56.3065 55.8056 53.546 54.7137C55.7581 53.4694 57.2581 51.1016 57.2581 48.3871C57.2581 44.3847 54.0024 41.129 50 41.129C45.9976 41.129 42.7419 44.3847 42.7419 48.3871C42.7419 51.1016 44.2419 53.4694 46.4548 54.7137C43.6944 55.8056 41.5548 58.1266 40.7153 61.0032C39.9565 60.3968 39.1145 59.9105 38.2169 59.5564C40.4323 58.3129 41.9355 55.9427 41.9355 53.2258C41.9355 50.3831 40.2887 47.9242 37.9032 46.7339V26.6129ZM50.3355 46.771C50.9581 48.196 52.3806 49.1935 54.0323 49.1935H55.5806C55.1871 51.9242 52.8379 54.0323 50 54.0323C47.1613 54.0323 44.8113 51.9226 44.4185 49.1903C46.6137 49.175 48.7597 48.2984 50.3355 46.771ZM44.4202 47.5774C44.8145 44.8484 47.1629 42.7419 50 42.7419C52.8379 42.7419 55.1871 44.85 55.5806 47.5806H54.0323C52.6984 47.5806 51.6129 46.4952 51.6129 45.1613C51.6129 44.8355 51.4169 44.5403 51.1153 44.4161C50.8137 44.2911 50.4669 44.3605 50.2363 44.5911L49.2887 45.5387C48.0056 46.8218 46.2339 47.5613 44.4202 47.5774ZM58.0645 65.3226H41.9355V63.7097C41.9355 59.2629 45.5532 55.6452 50 55.6452C54.4468 55.6452 58.0645 59.2629 58.0645 63.7097V65.3226ZM41.9355 66.9355H58.0645V68.5484H41.9355V66.9355ZM34.6774 47.5806C37.5153 47.5806 39.8645 49.6887 40.2581 52.4194H38.7097C37.3758 52.4194 36.2903 51.3339 36.2903 50C36.2903 49.6742 36.0944 49.379 35.7927 49.2548C35.4911 49.129 35.1452 49.1992 34.9137 49.4298L33.9661 50.3774C32.6831 51.6605 30.9105 52.4 29.0968 52.4161C29.4919 49.6871 31.8403 47.5806 34.6774 47.5806ZM29.096 54.029C31.2911 54.0129 33.4371 53.1371 35.0129 51.6097C35.6355 53.0347 37.0581 54.0323 38.7097 54.0323H40.2581C39.8645 56.7629 37.5153 58.871 34.6774 58.871C31.8387 58.871 29.4887 56.7613 29.096 54.029ZM42.7419 73.3871H26.6129V68.5484C26.6129 64.1016 30.2306 60.4839 34.6774 60.4839C36.8113 60.4839 38.8605 61.3468 40.3661 62.8484C40.3411 63.1323 40.3226 63.4185 40.3226 63.7097V69.3548C40.3226 69.8008 40.6831 70.1613 41.129 70.1613H42.7419V73.3871ZM73.3871 73.3871H57.2581V70.1613H58.871C59.3169 70.1613 59.6774 69.8008 59.6774 69.3548V63.7097C59.6774 63.4185 59.6589 63.1323 59.6339 62.8476C61.1403 61.3468 63.1895 60.4839 65.3226 60.4839C69.7694 60.4839 73.3871 64.1016 73.3871 68.5484V73.3871Z" fill="white"/>
</svg>
