<svg width="100" height="100" viewBox="0 0 100 100" fill="none" xmlns="http://www.w3.org/2000/svg">
<circle cx="50" cy="50" r="50" fill="#003153"/>
<path d="M49.3582 44.2012L56.8582 35.8678C57.7819 34.8415 57.6987 33.2607 56.6724 32.337C55.6461 31.4133 54.0652 31.4965 53.1416 32.5228L47.404 38.8978L46.7682 38.2612C45.7784 37.3178 44.2222 37.3178 43.2324 38.2612C42.7634 38.73 42.5 39.366 42.5 40.0291C42.5 40.6922 42.7634 41.3282 43.2324 41.797L45.7324 44.297C46.2174 44.7819 46.8803 45.0462 47.5659 45.0281C48.2515 45.0099 48.8995 44.711 49.3582 44.2012ZM46.9107 43.1178L44.4107 40.6178C44.1941 40.4086 44.1072 40.0988 44.1835 39.8074C44.2597 39.5161 44.4873 39.2885 44.7786 39.2123C45.07 39.136 45.3798 39.2229 45.5891 39.4395L46.8474 40.697C47.009 40.8586 47.2299 40.9467 47.4584 40.9407C47.6868 40.9347 47.9028 40.8352 48.0557 40.6653L54.3799 33.6387C54.5789 33.4172 54.881 33.3187 55.1723 33.3803C55.4637 33.4419 55.7 33.6543 55.7923 33.9374C55.8846 34.2205 55.8189 34.5313 55.6199 34.7528L48.1199 43.0862C47.9669 43.2562 47.7508 43.356 47.5221 43.362C47.2934 43.3679 47.0724 43.2797 46.9107 43.1178Z" fill="white"/>
<path d="M72.5 44.1954H65.5433C64.5344 44.1952 63.6509 44.8721 63.3883 45.8462H61.0175C64.9599 40.0657 63.7634 32.221 58.2769 27.8786C52.7905 23.5363 44.8807 24.1735 40.1603 29.3383C35.4398 34.503 35.5146 42.4381 40.3317 47.5129L36.6117 47.5079C36.3474 46.5355 35.4643 45.861 34.4567 45.862H27.5C26.1193 45.862 25 46.9813 25 48.362V63.362C25 64.7427 26.1193 65.862 27.5 65.862H31.6317C32.6446 65.8608 33.5289 65.1758 33.7833 64.1954H35.22L34.2792 66.6954C34.0057 67.4179 34.0312 68.2195 34.3501 68.9232C34.6689 69.6268 35.2548 70.1746 35.9783 70.4454C36.7129 70.7172 37.5259 70.683 38.235 70.3504C38.2392 70.3604 38.2408 70.3712 38.245 70.3812C38.5671 71.0902 39.1593 71.641 39.8899 71.9109C40.6204 72.1807 41.4285 72.1472 42.1342 71.8179C42.4486 72.5366 43.0401 73.0977 43.7743 73.3739C44.5085 73.6501 45.3232 73.6178 46.0333 73.2845C46.0375 73.2937 46.0383 73.3037 46.0425 73.3137C46.528 74.3893 47.6138 75.0664 48.7933 75.029C49.9729 74.9916 51.0136 74.2471 51.43 73.1429L51.48 73.0104L54.3133 74.3945C55.01 74.731 55.8122 74.7753 56.5417 74.5175C57.2712 74.2598 57.8676 73.7214 58.1983 73.022C58.5308 72.3132 58.567 71.5011 58.2992 70.7654L58.3283 70.7554C59.0619 70.4951 59.6609 69.9525 59.9923 69.2482C60.3236 68.5439 60.3597 67.7364 60.0925 67.0054L60.1192 66.9954C60.8528 66.7353 61.4521 66.1927 61.7836 65.4884C62.1151 64.7841 62.1513 63.9765 61.8842 63.2454C62.3064 63.0958 62.6884 62.8505 63 62.5287H66.2167C66.4714 63.5089 67.3555 64.1938 68.3683 64.1954H72.5C73.8807 64.1954 75 63.0761 75 61.6954V46.6954C75 45.3146 73.8807 44.1954 72.5 44.1954ZM38.3333 38.362C38.3259 33.2042 41.7063 28.6536 46.6464 27.171C51.5866 25.6884 56.914 27.6256 59.7479 31.9352C62.5818 36.2447 62.2496 41.9037 58.9308 45.852L51.125 45.862C50.1732 45.8627 49.2658 46.2641 48.625 46.9679L48.1167 47.5287L42.7925 47.5212C39.9692 45.3224 38.3227 41.9405 38.3333 38.362ZM31.6317 64.1954H27.5C27.0398 64.1954 26.6667 63.8223 26.6667 63.362V48.362C26.6667 47.9018 27.0398 47.5287 27.5 47.5287H34.4567C34.6244 47.5287 34.7834 47.6031 34.8909 47.7319C34.9984 47.8606 35.0432 48.0303 35.0133 48.1954L32.1892 63.7304C32.1404 63.9999 31.9055 64.1957 31.6317 64.1954ZM36.5625 68.8854C36.253 68.7698 36.0024 68.5356 35.8663 68.2346C35.7302 67.9336 35.7198 67.5907 35.8375 67.282L37.0142 64.1612C37.2723 63.5447 37.9697 63.2403 38.5972 63.4702C39.2248 63.7001 39.5604 64.383 39.3592 65.0204L38.1667 68.1595C37.922 68.8009 37.2058 69.125 36.5625 68.8854ZM40.4617 70.3487C40.1521 70.2331 39.9014 69.999 39.7647 69.6982C39.6281 69.3974 39.6168 69.0545 39.7333 68.7454C39.8317 68.4862 41.2333 64.7695 41.2033 64.8562C41.4635 64.2375 42.1658 63.9347 42.7943 64.1703C43.4227 64.4058 43.753 65.0956 43.5425 65.7329L42.0733 69.6229C41.8265 70.2663 41.1071 70.5903 40.4617 70.3487ZM44.3608 71.8154C44.0513 71.6997 43.8005 71.4657 43.6639 71.1649C43.5272 70.864 43.5159 70.5212 43.6325 70.212L45.1025 66.322C45.3615 65.7013 46.0653 65.3968 46.6951 65.633C47.3249 65.8693 47.6548 66.5616 47.4417 67.1995C47.2217 67.7829 45.8867 71.3145 45.9725 71.0887C45.8552 71.3988 45.6194 71.6496 45.3172 71.7859C45.0149 71.9221 44.6709 71.9327 44.3608 71.8154ZM48.2592 73.2787C47.9495 73.1633 47.6986 72.9292 47.5621 72.6283C47.4256 72.3273 47.4146 71.9844 47.5317 71.6754L48.4133 69.342C48.6797 68.7327 49.3765 68.4386 49.9989 68.6728C50.6212 68.907 50.9513 69.5874 50.75 70.2212L49.8683 72.5545C49.623 73.1979 48.9035 73.5217 48.2592 73.2787ZM62.0617 61.0287C61.7583 61.6389 61.0247 61.8974 60.4058 61.612L58.1558 60.537C57.7482 60.3735 57.2837 60.5544 57.094 60.9505C56.9043 61.3466 57.0546 61.822 57.4375 62.037L59.6875 63.1095L59.6942 63.1154C60.2965 63.4229 60.5449 64.1537 60.2549 64.7647C59.9649 65.3756 59.2416 65.6451 58.6225 65.3729L56.2058 64.2154C55.7974 64.0478 55.3292 64.2277 55.1382 64.6257C54.9472 65.0237 55.0996 65.5015 55.4858 65.7154L57.9025 66.8729C58.5009 67.1826 58.7462 67.9109 58.4569 68.5195C58.1677 69.1281 57.4481 69.3979 56.83 69.1295H56.8175L54.5358 68.0337C54.1266 67.8615 53.6542 68.0404 53.4617 68.4405C53.2692 68.8406 53.4242 69.3214 53.8142 69.5337L56.1058 70.6337C56.7257 70.9367 56.9859 71.6824 56.6892 72.3054C56.5482 72.6016 56.2952 72.8295 55.986 72.9389C55.6768 73.0484 55.3367 73.0303 55.0408 72.8887L52.0717 71.4454L52.3117 70.8095C52.6818 69.847 52.5113 68.7603 51.8643 67.9573C51.2173 67.1544 50.1917 66.7567 49.1725 66.9137C49.2302 65.893 48.7464 64.9173 47.899 64.3455C47.0516 63.7736 45.9658 63.69 45.0408 64.1254C45.0408 64.1154 45.035 64.1045 45.0308 64.0945C44.6647 63.2838 43.9476 62.6853 43.0845 62.47C42.2214 62.2548 41.3073 62.4465 40.6033 62.9904C39.8079 61.8037 38.2711 61.3663 36.97 61.9562C36.6646 62.0978 36.3861 62.2912 36.1467 62.5279H34.1017L36.5283 49.1795L46.6033 49.1954L42.6442 53.5512C41.4572 54.8581 41.501 56.8654 42.7438 58.1193C43.9866 59.3732 45.9935 59.4348 47.3108 58.2595L51.6667 54.3245L61.475 59.3554C62.0978 59.6566 62.3601 60.4045 62.0617 61.0287ZM52.9875 53.1304L53.8908 52.3145C54.2326 52.0062 54.2596 51.4792 53.9513 51.1374C53.6429 50.7957 53.1159 50.7687 52.7742 51.077L46.1975 57.0154C45.5416 57.6028 44.5403 57.5724 43.9212 56.9464C43.3021 56.3204 43.2829 55.3188 43.8775 54.6695L49.86 48.0862C50.1853 47.7309 50.6449 47.5286 51.1267 47.5287C59.5433 47.522 60.455 47.517 63.4717 47.5129L65.8983 60.862H63.815C63.9838 59.622 63.3395 58.4132 62.2158 57.862L52.9875 53.1304ZM73.3333 61.6954C73.3333 62.1556 72.9602 62.5287 72.5 62.5287H68.3683C68.0947 62.5291 67.86 62.3337 67.8108 62.0645L64.9867 46.5287C64.9568 46.3637 65.0016 46.1939 65.1091 46.0652C65.2166 45.9365 65.3756 45.8621 65.5433 45.862H72.5C72.9602 45.862 73.3333 46.2351 73.3333 46.6954V61.6954Z" fill="white"/>
</svg>
