<svg width="100" height="100" viewBox="0 0 100 100" fill="none" xmlns="http://www.w3.org/2000/svg">
<circle cx="50" cy="50" r="50" fill="#003153"/>
<path d="M65.6132 68.649L63.7419 63.0345C63.088 61.0743 61.4197 59.6274 59.3859 59.2572L53.984 58.2743V57.8556C54.924 57.31 55.742 56.5801 56.3935 55.716H58.0255C59.3625 55.716 60.4505 54.628 60.4505 53.291V43.5912C60.4505 37.7972 55.7364 33.0831 49.9424 33.0831C44.1484 33.0831 39.4343 37.7972 39.4343 43.5912V49.2495C39.4343 50.8079 40.5425 52.1117 42.012 52.4156C42.4655 54.7387 43.9172 56.7045 45.9008 57.8556V58.2743L40.498 59.2572C38.4651 59.6274 36.7959 61.0743 36.1428 63.0345L35.8195 64.0053L33.0664 61.2521C32.7511 60.9369 32.7511 60.4236 33.0664 60.1084L36.2592 56.9163L30.2663 50.9235L26.658 54.5318C25.5894 55.6004 25.001 57.0214 25.001 58.533C25.001 60.0445 25.5894 61.4647 26.658 62.5333L37.5824 73.4577C38.651 74.5263 40.072 75.1156 41.5836 75.1156C43.0951 75.1156 44.5153 74.5263 45.5589 73.482L49.4962 69.8744L48.2684 68.649H65.6132ZM58.8339 53.291C58.8339 53.7372 58.4709 54.0993 58.0255 54.0993H57.3457C57.5802 53.565 57.758 53.0017 57.8728 52.4156C58.2187 52.3437 58.5372 52.2063 58.8339 52.0333V53.291ZM58.0255 50.6414V47.8575C58.5065 48.138 58.8339 48.6537 58.8339 49.2495C58.8339 49.8452 58.5065 50.3609 58.0255 50.6414ZM41.8592 50.6414C41.3783 50.3609 41.0509 49.8452 41.0509 49.2495C41.0509 48.6537 41.3783 48.138 41.8592 47.8575V50.6414ZM41.8592 45.2079V46.131C41.5715 46.2061 41.3015 46.3193 41.0509 46.4656V43.5912C41.0509 38.6888 45.0399 34.6998 49.9424 34.6998C54.8448 34.6998 58.8339 38.6888 58.8339 43.5912V46.4656C58.5833 46.3193 58.3133 46.2053 58.0255 46.131V45.2079H57.2172C54.827 45.2079 52.5799 44.2767 50.8889 42.5865L49.9424 41.64L48.9958 42.5865C47.3048 44.2767 45.0577 45.2079 42.6675 45.2079H41.8592ZM43.4758 50.8661V46.7938C45.9032 46.6111 48.1665 45.6096 49.9424 43.921C51.7182 45.6096 53.9815 46.6119 56.4089 46.7938V50.8661C56.4089 52.0446 56.0872 53.1472 55.5343 54.0993H49.9424V55.716H54.2054C53.0657 56.7191 51.576 57.3326 49.9424 57.3326C46.3769 57.3326 43.4758 54.4316 43.4758 50.8661ZM52.3673 58.5766V58.6146L49.9424 61.0395L47.5174 58.6146V58.5766C48.2837 58.8175 49.0977 58.9492 49.9424 58.9492C50.7871 58.9492 51.601 58.8175 52.3673 58.5766ZM37.6754 63.5453C38.1418 62.1453 39.334 61.1115 40.7866 60.8464L46.4367 59.8198L49.9424 63.3255L53.4472 59.8206L59.0966 60.8472C60.5491 61.1123 61.7414 62.1453 62.2078 63.5461L63.3709 67.0324H46.6517L43.5033 63.884L40.0049 67.0486C39.7002 67.3549 39.1675 67.3549 38.862 67.0486L37.0966 65.2832L37.6754 63.5453ZM30.2655 53.2094L33.9725 56.9163L33.0946 57.7942L29.3877 54.0872L30.2655 53.2094ZM44.4394 72.3164C43.6763 73.0778 42.6611 73.4989 41.582 73.4989C40.5029 73.4989 39.4876 73.0778 38.7238 72.3147L27.7994 61.3912C27.0363 60.6281 26.616 59.6129 26.616 58.5338C26.616 57.4539 27.0363 56.4386 27.7994 55.6756L28.2439 55.231L31.9509 58.9379L31.9218 58.967C30.9769 59.9128 30.9769 61.451 31.9218 62.3967L37.7182 68.1931C38.1765 68.6507 38.7852 68.9037 39.4335 68.9037C40.0817 68.9037 40.6904 68.6515 41.1188 68.2214L41.1794 68.1673L44.9033 71.8912L44.4394 72.3164ZM46.0964 70.7967L42.3806 67.0809L43.4484 66.1158L47.1577 69.8251L46.0964 70.7967Z" fill="white"/>
<path d="M72.5749 25H61.2584C59.9215 25 58.8335 26.088 58.8335 27.4249V33.8915C58.8335 35.2284 59.9215 36.3164 61.2584 36.3164H63.4175L62.5817 41.1914L70.3819 36.3164H72.5749C73.9118 36.3164 74.9998 35.2284 74.9998 33.8915V27.4249C74.9998 26.088 73.9118 25 72.5749 25ZM73.3832 33.8915C73.3832 34.3369 73.0203 34.6998 72.5749 34.6998H69.9179L64.7843 37.908L65.3348 34.6998H61.2584C60.8131 34.6998 60.4501 34.3369 60.4501 33.8915V27.4249C60.4501 26.9796 60.8131 26.6166 61.2584 26.6166H72.5749C73.0203 26.6166 73.3832 26.9796 73.3832 27.4249V33.8915Z" fill="white"/>
<path d="M71.7667 28.2333H62.0669V29.8499H71.7667V28.2333Z" fill="white"/>
<path d="M68.5334 31.4666H62.0669V33.0832H68.5334V31.4666Z" fill="white"/>
<path d="M71.7665 31.4666H70.1499V33.0832H71.7665V31.4666Z" fill="white"/>
<path d="M49.9422 27.4249C39.3807 27.4249 30.2832 34.7305 27.918 44.9209L26.3863 42.3675L25 43.1992L27.8412 47.9335L32.5755 45.0923L31.7438 43.706L29.5532 45.0203C31.844 35.698 40.2271 29.0416 49.9422 29.0416C52.0657 29.0416 54.1608 29.3568 56.1695 29.9792L56.648 28.4353C54.4841 27.7644 52.2281 27.4249 49.9422 27.4249Z" fill="white"/>
<path d="M74.6072 42.8977L69.8729 40.0565L67.0324 44.7916L68.4187 45.6234L69.8332 43.2655C70.5777 45.4439 70.9584 47.7226 70.9584 50.0578C70.9584 54.8649 69.2933 59.5644 66.271 63.2899L67.5263 64.3084C70.7822 60.2959 72.5751 55.2343 72.5751 50.0578C72.5751 47.5852 72.1766 45.1707 71.3998 42.8589L73.7754 44.284L74.6072 42.8977Z" fill="white"/>
</svg>
